<svg xmlns="http://www.w3.org/2000/svg" width="430" height="430" style="width:100%;height:100%;transform:translate3d(0,0,0);content-visibility:visible" viewBox="0 0 430 430"><defs><mask id="m" mask-type="alpha"><use xmlns:ns1="http://www.w3.org/1999/xlink" ns1:href="#a"/></mask><mask id="l" mask-type="alpha"><use xmlns:ns2="http://www.w3.org/1999/xlink" ns2:href="#b"/></mask><mask id="j" mask-type="alpha"><use xmlns:ns3="http://www.w3.org/1999/xlink" ns3:href="#c"/></mask><mask id="i" mask-type="alpha"><use xmlns:ns4="http://www.w3.org/1999/xlink" ns4:href="#d"/></mask><mask id="h" mask-type="alpha"><use xmlns:ns5="http://www.w3.org/1999/xlink" ns5:href="#e"/></mask><g id="a" style="display:none"><path class="tertiary"/><path fill-opacity="0"/></g><g id="b" style="display:none"><path/><path fill-opacity="0"/></g><g id="c" style="display:block"><path fill-opacity="0" stroke="#FFF" stroke-width="7" d="m270.984 231.015 12.102 206.778 12.413 163-520 1 190.997-164L200.14 202.619l70.845 28.396z"/><path fill="#FFC738" d="m146.193-89.191 12.102 206.778 12.413 163-520 1 190.997-164L75.348-117.587l70.845 28.396z" class="quaternary" style="mix-blend-mode:multiply" transform="translate(124.791 320.206)"/></g><g id="d" style="display:block"><path fill="red" d="M389.5 48v329H16c-.276 0-.5-.112-.5-.25V48c0-5.523 4.477-10 10-10h354c5.523 0 10 4.477 10 10z"/><path fill-opacity="0" stroke="#FFC738" stroke-width="0" d="M389.5 48v329H16c-.276 0-.5-.112-.5-.25V48c0-5.523 4.477-10 10-10h354c5.523 0 10 4.477 10 10z"/></g><g id="e" style="display:block"><path fill="red" d="M389.5 48v329H16c-.276 0-.5-.112-.5-.25V48c0-5.523 4.477-10 10-10h354c5.523 0 10 4.477 10 10z"/><path fill-opacity="0" stroke="#FFC738" stroke-width="0" d="M389.5 48v329H16c-.276 0-.5-.112-.5-.25V48c0-5.523 4.477-10 10-10h354c5.523 0 10 4.477 10 10z"/></g><clipPath id="f"><path d="M0 0h430v430H0z"/></clipPath><clipPath id="k"><path d="M0 0h430v430H0z"/></clipPath><clipPath id="g"><path d="M0 0h430v430H0z"/></clipPath></defs><g clip-path="url(#f)"><g clip-path="url(#g)" style="display:block"><g mask="url(#h)" style="mix-blend-mode:multiply;display:block"><path fill="#FFC738" fill-opacity=".5" d="m146.193-89.191 12.102 206.778 12.413 163-520 1 190.997-164L75.348-117.587l70.845 28.396z" class="quaternary" style="mix-blend-mode:multiply" transform="translate(124.791 320.206)"/></g><g mask="url(#i)" style="display:block"><path fill="none" stroke="#121331" stroke-linecap="round" stroke-linejoin="round" stroke-width="7" d="m270.984 231.015 12.102 206.778 12.413 163-520 1 190.997-164L200.14 202.619l70.845 28.396z" class="primary"/></g><g mask="url(#j)" style="display:block"><path fill="none" stroke="#121331" stroke-linecap="round" stroke-linejoin="round" stroke-width="7" d="M389.5 48v329H16c-.276 0-.5-.112-.5-.25V48c0-5.523 4.477-10 10-10h354c5.523 0 10 4.477 10 10z" class="primary"/></g><g fill="#F24C00" style="display:block"><path d="M276.69 228.416h-.01c0 .01 0 .01.01.01l3.12 37.306c.185 2.225-2.037 3.867-4.109 3.034l-103.433-41.579c-2.072-.833-2.54-3.556-.866-5.033l28.089-24.768.01-.011h-.01l32.004-79.627c2.888-7.187 9.672-11.66 16.942-11.962l38.466 13.64 11.195 4.502c9.786 3.94 14.534 15.065 10.594 24.861l-32.002 79.627z" class="tertiary"/><path d="M47.169-58.805c-3.19 2.23-5.8 5.39-7.35 9.28l-34.45 85.97c-.09.22-.18.45-.27.67v.01l-31.1 27.48-19.283-7.729c-2.073-.831-2.544-3.554-.871-5.033l28.064-24.798v-.01l31.92-79.66c2.88-7.19 9.66-11.67 16.93-11.98l16.41 5.8z" class="tertiary" opacity=".5" style="mix-blend-mode:multiply" transform="rotate(.059 -162578.093 207883.955)"/></g><path fill="none" stroke="#121331" stroke-linecap="round" stroke-linejoin="round" stroke-width="7" d="m229.837 117.482-31.929 79.657 77.23 30.956 31.929-79.657c3.927-9.797-.832-20.921-10.629-24.848l-41.753-16.736c-9.797-3.927-20.921.831-24.848 10.628zm-31.93 79.661-31.703 28.016 112.508 45.096-3.576-42.157" class="primary" style="display:block"/><g fill="#3A3347" style="display:block"><path d="M246.902 57.566v75.394c0 10.625 8.613 19.238 19.238 19.238s19.238-8.613 19.238-19.238V57.566h-38.476z" class="secondary"/><path d="M13.75 45.465c-2.5 1.18-5.3 1.85-8.26 1.85-10.62 0-19.24-8.61-19.24-19.24v-75.39H2.76v75.39c0 7.68 4.49 14.3 10.99 17.39z" class="secondary" opacity=".5" style="mix-blend-mode:multiply" transform="translate(260.652 104.883)"/></g><g fill="none" stroke-linecap="round" stroke-linejoin="round" style="display:block"><path stroke="#121331" stroke-width="7" d="M245.762 56.251v75.395c0 10.625 8.613 19.238 19.238 19.238 0 0 0 0 0 0 10.625 0 19.238-8.613 19.238-19.238V56.251m114.603-.684H132.159" class="primary"/><path stroke="#646E78" stroke-width="12" d="M265 129.284s0 0 0 0" class="quinary"/></g></g><g clip-path="url(#k)" style="display:none"><g mask="url(#l)" style="mix-blend-mode:multiply;display:none"><path class="quaternary" style="mix-blend-mode:multiply"/><path fill="none" class="primary"/></g><g mask="url(#m)" style="display:none"><path fill="none"/></g><g style="display:none"><path class="tertiary"/><path class="tertiary" style="mix-blend-mode:multiply"/></g><g fill="none" style="display:none"><path class="primary"/><path class="primary"/></g><g style="display:none"><path class="secondary"/><path class="secondary" style="mix-blend-mode:multiply"/></g><path fill="none" class="quinary" style="display:none"/><path fill="none" class="primary" style="display:none"/></g></g></svg>